# xmcd
#
# Track frame offsets: 
#        182
#        17990
#        36362
#        69407
#
# Disc length: 1302 seconds
#
# Revision: 3
# Processed by: cddbd v1.5.2PL0 Copyright (c) Steve Scherf et al.
# Submitted via: ExactAudioCopy v0.95b4
#
DISCID=30051404
DTITLE=Snap! - Rame [74321368902]
DYEAR=1996
DGENRE=Dance - Disco
TTITLE0=Rame (Original Version)
TTITLE1=Rame (Slomo Version)
TTITLE2=Rame (Resistance D. Remix)
TTITLE3=Rame (80% Stereo Mix)
EXTD=
EXTT0=
EXTT1=
EXTT2=
EXTT3=
PLAYORDER=
